C:\Users\u0145647\OneDrive - KU Leuven\KU Leuven\BCN_Workshop\ParameterEstimation\Data_CP1\IPSA\JointAngles\JointAngles_segment_24.mot
version=1
nRows=70
nColumns=4
inDegrees=yes
endheader
                time	         pelvis_tilt	       hip_flexion_r	       ankle_angle_r	
          5.04000000	         90.00000000	          0.00000000	         -9.88925163	
          5.04500000	         90.00000000	          0.00000000	         -9.85404579	
          5.05000000	         90.00000000	          0.00000000	         -9.82030774	
          5.05500000	         90.00000000	          0.00000000	         -9.78761365	
          5.06000000	         90.00000000	          0.00000000	         -9.75643187	
          5.06500000	         90.00000000	          0.00000000	         -9.72692626	
          5.07000000	         90.00000000	          0.00000000	         -9.69854273	
          5.07500000	         90.00000000	          0.00000000	         -9.67027337	
          5.08000000	         90.00000000	          0.00000000	         -9.64114079	
          5.08500000	         90.00000000	          0.00000000	         -9.61076450	
          5.09000000	         90.00000000	          0.00000000	         -9.57907330	
          5.09500000	         90.00000000	          0.00000000	         -9.54547586	
          5.10000000	         90.00000000	          0.00000000	         -9.50895516	
          5.10500000	         90.00000000	          0.00000000	         -9.46948279	
          5.11000000	         90.00000000	          0.00000000	         -9.42799893	
          5.11500000	         90.00000000	          0.00000000	         -9.38527293	
          5.12000000	         90.00000000	          0.00000000	         -9.34194955	
          5.12500000	         90.00000000	          0.00000000	         -9.29845163	
          5.13000000	         90.00000000	          0.00000000	         -9.25437477	
          5.13500000	         90.00000000	          0.00000000	         -9.20945228	
          5.14000000	         90.00000000	          0.00000000	         -9.16383271	
          5.14500000	         90.00000000	          0.00000000	         -9.11716927	
          5.15000000	         90.00000000	          0.00000000	         -9.06882257	
          5.15500000	         90.00000000	          0.00000000	         -9.01928476	
          5.16000000	         90.00000000	          0.00000000	         -8.96857939	
          5.16500000	         90.00000000	          0.00000000	         -8.91663957	
          5.17000000	         90.00000000	          0.00000000	         -8.86371533	
          5.17500000	         90.00000000	          0.00000000	         -8.81035356	
          5.18000000	         90.00000000	          0.00000000	         -8.75752913	
          5.18500000	         90.00000000	          0.00000000	         -8.70663262	
          5.19000000	         90.00000000	          0.00000000	         -8.65881651	
          5.19500000	         90.00000000	          0.00000000	         -8.61419884	
          5.20000000	         90.00000000	          0.00000000	         -8.57174929	
          5.20500000	         90.00000000	          0.00000000	         -8.53077127	
          5.21000000	         90.00000000	          0.00000000	         -8.49086517	
          5.21500000	         90.00000000	          0.00000000	         -8.45162639	
          5.22000000	         90.00000000	          0.00000000	         -8.41187345	
          5.22500000	         90.00000000	          0.00000000	         -8.37048946	
          5.23000000	         90.00000000	          0.00000000	         -8.32727357	
          5.23500000	         90.00000000	          0.00000000	         -8.28319025	
          5.24000000	         90.00000000	          0.00000000	         -8.23956844	
          5.24500000	         90.00000000	          0.00000000	         -8.19632751	
          5.25000000	         90.00000000	          0.00000000	         -8.15332743	
          5.25500000	         90.00000000	          0.00000000	         -8.11140346	
          5.26000000	         90.00000000	          0.00000000	         -8.07142655	
          5.26500000	         90.00000000	          0.00000000	         -8.03336324	
          5.27000000	         90.00000000	          0.00000000	         -7.99719468	
          5.27500000	         90.00000000	          0.00000000	         -7.96275203	
          5.28000000	         90.00000000	          0.00000000	         -7.92938896	
          5.28500000	         90.00000000	          0.00000000	         -7.89597994	
          5.29000000	         90.00000000	          0.00000000	         -7.86179910	
          5.29500000	         90.00000000	          0.00000000	         -7.82715354	
          5.30000000	         90.00000000	          0.00000000	         -7.79265501	
          5.30500000	         90.00000000	          0.00000000	         -7.75882786	
          5.31000000	         90.00000000	          0.00000000	         -7.72585083	
          5.31500000	         90.00000000	          0.00000000	         -7.69295362	
          5.32000000	         90.00000000	          0.00000000	         -7.65924124	
          5.32500000	         90.00000000	          0.00000000	         -7.62498391	
          5.33000000	         90.00000000	          0.00000000	         -7.59068094	
          5.33500000	         90.00000000	          0.00000000	         -7.55578324	
          5.34000000	         90.00000000	          0.00000000	         -7.51956819	
          5.34500000	         90.00000000	          0.00000000	         -7.48180386	
          5.35000000	         90.00000000	          0.00000000	         -7.44293812	
          5.35500000	         90.00000000	          0.00000000	         -7.40305774	
          5.36000000	         90.00000000	          0.00000000	         -7.36253446	
          5.36500000	         90.00000000	          0.00000000	         -7.32252667	
          5.37000000	         90.00000000	          0.00000000	         -7.28439882	
          5.37500000	         90.00000000	          0.00000000	         -7.24831553	
          5.38000000	         90.00000000	          0.00000000	         -7.21369544	
          5.38500000	         90.00000000	          0.00000000	         -7.17981077	
